<svg xmlns="http://www.w3.org/2000/svg" width="23" height="23" viewBox="0 0 22 22" fill="none">
<path d="M3.20801 5.95801C3.20801 5.10379 3.20801 4.67685 3.34757 4.33963C3.43974 4.1172 3.57482 3.91511 3.7451 3.74489C3.91537 3.57467 4.11752 3.43966 4.33998 3.34757C4.67685 3.20801 5.10379 3.20801 5.95801 3.20801H7.10407C7.95829 3.20801 8.38523 3.20801 8.7221 3.34757C8.94456 3.43966 9.1467 3.57467 9.31698 3.74489C9.48726 3.91511 9.62234 4.1172 9.71451 4.33963C9.85407 4.67651 9.85407 5.10379 9.85407 5.95801V7.10373C9.85407 7.95795 9.85407 8.38523 9.71451 8.7221C9.52834 9.1713 9.17136 9.52815 8.7221 9.71416C8.38523 9.85373 7.95829 9.85373 7.10407 9.85373H5.95801C5.10379 9.85373 4.67685 9.85373 4.33998 9.71416C4.11752 9.62207 3.91537 9.48706 3.7451 9.31684C3.57482 9.14663 3.43974 8.94453 3.34757 8.7221C3.20801 8.38523 3.20801 7.95795 3.20801 7.10373V5.95801Z" fill="#3F3F3F"/>
<path fillRule="evenodd" clipRule="evenodd" d="M5.94206 2.75H7.12044C7.53363 2.75 7.86706 2.75 8.13863 2.76856C8.41741 2.78747 8.66422 2.82769 8.89797 2.92428C9.45936 3.15696 9.90535 3.60308 10.1379 4.16453C10.2348 4.39828 10.275 4.64509 10.2939 4.92422C10.3125 5.19544 10.3125 5.52887 10.3125 5.94206V7.12044C10.3125 7.53363 10.3125 7.86706 10.2939 8.13863C10.275 8.41741 10.2348 8.66422 10.1379 8.89797C9.90531 9.45932 9.45932 9.90531 8.89797 10.1379C8.66422 10.2348 8.41741 10.275 8.13828 10.2939C7.86706 10.3125 7.53363 10.3125 7.12044 10.3125H5.94206C5.52887 10.3125 5.19544 10.3125 4.92388 10.2939C4.64509 10.275 4.39828 10.2348 4.16453 10.1379C3.60308 9.90535 3.15696 9.45936 2.92428 8.89797C2.82769 8.66422 2.78747 8.41741 2.76856 8.13828C2.75 7.86741 2.75 7.53397 2.75 7.12078V5.94241C2.75 5.52922 2.75 5.19578 2.76856 4.92422C2.78747 4.64544 2.82769 4.39863 2.92428 4.16488C3.15688 3.60335 3.60301 3.15723 4.16453 2.92463C4.39828 2.82803 4.64509 2.78781 4.92422 2.76891C5.19509 2.75 5.52853 2.75 5.94172 2.75H5.94206ZM4.98644 3.68294C4.75406 3.69875 4.61862 3.72866 4.5155 3.77128C4.34866 3.84038 4.19706 3.94167 4.06937 4.06937C3.94167 4.19706 3.84038 4.34866 3.77128 4.5155C3.72866 4.61862 3.69909 4.75406 3.68294 4.98644C3.66678 5.22294 3.66678 5.52509 3.66678 5.95822V7.10428C3.66678 7.53741 3.66678 7.83991 3.68294 8.07606C3.69875 8.30844 3.72866 8.44388 3.77128 8.547C3.84038 8.71384 3.94167 8.86544 4.06937 8.99313C4.19706 9.12083 4.34866 9.22212 4.5155 9.29122C4.61862 9.33384 4.75406 9.36341 4.98644 9.37956C5.22294 9.39572 5.52509 9.39572 5.95822 9.39572H7.10428C7.53741 9.39572 7.83991 9.39572 8.07606 9.37956C8.30844 9.36375 8.44388 9.33384 8.547 9.29122C8.71384 9.22212 8.86544 9.12083 8.99313 8.99313C9.12083 8.86544 9.22212 8.71384 9.29122 8.547C9.33384 8.44388 9.36341 8.30844 9.37956 8.07606C9.39572 7.83956 9.39572 7.53741 9.39572 7.10428V5.95822C9.39572 5.52509 9.39572 5.22259 9.37956 4.98644C9.36375 4.75406 9.33384 4.61862 9.29122 4.5155C9.22212 4.34866 9.12083 4.19706 8.99313 4.06937C8.86544 3.94167 8.71384 3.84038 8.547 3.77128C8.44388 3.72866 8.30844 3.69909 8.07606 3.68294C7.83956 3.66678 7.53741 3.66678 7.10428 3.66678H5.95822C5.52509 3.66678 5.22259 3.66678 4.98644 3.68294V3.68294Z" fill="black"/>
<path d="M3.20801 14.8955C3.20801 14.0413 3.20801 13.6144 3.34757 13.2771C3.43974 13.0547 3.57482 12.8526 3.7451 12.6824C3.91537 12.5122 4.11752 12.3772 4.33998 12.2851C4.67685 12.1455 5.10379 12.1455 5.95801 12.1455H7.10407C7.95829 12.1455 8.38523 12.1455 8.7221 12.2851C8.94456 12.3772 9.1467 12.5122 9.31698 12.6824C9.48726 12.8526 9.62234 13.0547 9.71451 13.2771C9.85407 13.614 9.85407 14.0413 9.85407 14.8955V16.0412C9.85407 16.8954 9.85407 17.3227 9.71451 17.6596C9.52834 18.1088 9.17136 18.4656 8.7221 18.6517C8.38523 18.7912 7.95829 18.7912 7.10407 18.7912H5.95801C5.10379 18.7912 4.67685 18.7912 4.33998 18.6517C4.11752 18.5596 3.91537 18.4246 3.7451 18.2543C3.57482 18.0841 3.43974 17.882 3.34757 17.6596C3.20801 17.3227 3.20801 16.8954 3.20801 16.0412V14.8955Z" fill="#D0D2E0"/>
<path fillRule="evenodd" clipRule="evenodd" d="M5.94206 11.6875H7.12044C7.53363 11.6875 7.86706 11.6875 8.13863 11.7061C8.41741 11.725 8.66422 11.7652 8.89797 11.8618C9.45938 12.0944 9.90539 12.5406 10.1379 13.102C10.2348 13.3358 10.275 13.5826 10.2939 13.8617C10.3125 14.1329 10.3125 14.4664 10.3125 14.8796V16.0579C10.3125 16.4711 10.3125 16.8046 10.2939 17.0761C10.275 17.3549 10.2348 17.6017 10.1379 17.8355C9.90539 18.3969 9.45938 18.8431 8.89797 19.0757C8.66422 19.1723 8.41741 19.2125 8.13828 19.2314C7.86706 19.25 7.53363 19.25 7.12044 19.25H5.94206C5.52887 19.25 5.19544 19.25 4.92388 19.2314C4.64509 19.2125 4.39828 19.1723 4.16453 19.0757C3.60301 18.8431 3.15688 18.397 2.92428 17.8355C2.82769 17.6017 2.78747 17.3549 2.76856 17.0758C2.75 16.8049 2.75 16.4715 2.75 16.0583V14.8799C2.75 14.4667 2.75 14.1333 2.76856 13.8617C2.78747 13.5829 2.82769 13.3361 2.92428 13.1024C3.15688 12.5409 3.60301 12.0947 4.16453 11.8621C4.39828 11.7655 4.64509 11.7253 4.92422 11.7064C5.19509 11.6875 5.52853 11.6875 5.94172 11.6875H5.94206ZM4.98644 12.6204C4.75406 12.6363 4.61862 12.6662 4.5155 12.7088C4.34866 12.7779 4.19706 12.8792 4.06937 13.0069C3.94167 13.1346 3.84038 13.2862 3.77128 13.453C3.72866 13.5561 3.69909 13.6916 3.68294 13.9239C3.66678 14.1604 3.66678 14.4626 3.66678 14.8957V16.0418C3.66678 16.4749 3.66678 16.7774 3.68294 17.0136C3.69875 17.2459 3.72866 17.3814 3.77128 17.4845C3.84038 17.6513 3.94167 17.8029 4.06937 17.9306C4.19706 18.0583 4.34866 18.1596 4.5155 18.2287C4.61862 18.2713 4.75406 18.3009 4.98644 18.3171C5.22294 18.3332 5.52509 18.3332 5.95822 18.3332H7.10428C7.53741 18.3332 7.83991 18.3332 8.07606 18.3171C8.30844 18.3012 8.44388 18.2713 8.547 18.2287C8.71384 18.1596 8.86544 18.0583 8.99313 17.9306C9.12083 17.8029 9.22212 17.6513 9.29122 17.4845C9.33384 17.3814 9.36341 17.2459 9.37956 17.0136C9.39572 16.7771 9.39572 16.4749 9.39572 16.0418V14.8957C9.39572 14.4626 9.39572 14.1601 9.37956 13.9239C9.36375 13.6916 9.33384 13.5561 9.29122 13.453C9.22212 13.2862 9.12083 13.1346 8.99313 13.0069C8.86544 12.8792 8.71384 12.7779 8.547 12.7088C8.44388 12.6662 8.30844 12.6366 8.07606 12.6204C7.83956 12.6043 7.53741 12.6043 7.10428 12.6043H5.95822C5.52509 12.6043 5.22259 12.6043 4.98644 12.6204V12.6204Z" fill="#D0D2E0"/>
<path d="M12.1455 5.95801C12.1455 5.10379 12.1455 4.67685 12.2851 4.33963C12.3772 4.1172 12.5123 3.91511 12.6826 3.74489C12.8529 3.57467 13.055 3.43966 13.2775 3.34757C13.6144 3.20801 14.0413 3.20801 14.8955 3.20801H16.0416C16.8958 3.20801 17.3227 3.20801 17.6596 3.34757C17.8821 3.43966 18.0842 3.57467 18.2545 3.74489C18.4248 3.91511 18.5598 4.1172 18.652 4.33963C18.7916 4.67651 18.7916 5.10379 18.7916 5.95801V7.10373C18.7916 7.95795 18.7916 8.38523 18.652 8.7221C18.4658 9.1713 18.1089 9.52815 17.6596 9.71416C17.3227 9.85373 16.8958 9.85373 16.0416 9.85373H14.8955C14.0413 9.85373 13.6144 9.85373 13.2775 9.71416C12.8282 9.52815 12.4712 9.1713 12.2851 8.7221C12.1455 8.38523 12.1455 7.95795 12.1455 7.10373V5.95801Z" fill="#D0D2E0"/>
<path fillRule="evenodd" clipRule="evenodd" d="M14.8796 2.75H16.0579C16.4711 2.75 16.8046 2.75 17.0761 2.76856C17.3549 2.78747 17.6017 2.82769 17.8355 2.92428C18.397 3.15688 18.8431 3.60301 19.0757 4.16453C19.1723 4.39828 19.2125 4.64509 19.2314 4.92422C19.25 5.19544 19.25 5.52887 19.25 5.94206V7.12044C19.25 7.53363 19.25 7.86706 19.2314 8.13863C19.2125 8.41741 19.1723 8.66422 19.0757 8.89797C18.8431 9.45938 18.3969 9.90539 17.8355 10.1379C17.6017 10.2348 17.3549 10.275 17.0758 10.2939C16.8046 10.3125 16.4711 10.3125 16.0579 10.3125H14.8796C14.4664 10.3125 14.1329 10.3125 13.8614 10.2939C13.5826 10.275 13.3358 10.2348 13.102 10.1379C12.5406 9.90539 12.0944 9.45938 11.8618 8.89797C11.7652 8.66422 11.725 8.41741 11.7061 8.13828C11.6875 7.86741 11.6875 7.53397 11.6875 7.12078V5.94241C11.6875 5.52922 11.6875 5.19578 11.7061 4.92422C11.725 4.64544 11.7652 4.39863 11.8618 4.16488C12.0944 3.60335 12.5405 3.15723 13.102 2.92463C13.3358 2.82803 13.5826 2.78781 13.8617 2.76891C14.1326 2.75 14.466 2.75 14.8792 2.75H14.8796ZM13.9239 3.68294C13.6916 3.69875 13.5561 3.72866 13.453 3.77128C13.2862 3.84038 13.1346 3.94167 13.0069 4.06937C12.8792 4.19706 12.7779 4.34866 12.7088 4.5155C12.6662 4.61862 12.6366 4.75406 12.6204 4.98644C12.6043 5.22294 12.6043 5.52509 12.6043 5.95822V7.10428C12.6043 7.53741 12.6043 7.83991 12.6204 8.07606C12.6363 8.30844 12.6662 8.44388 12.7088 8.547C12.7779 8.71384 12.8792 8.86544 13.0069 8.99313C13.1346 9.12083 13.2862 9.22212 13.453 9.29122C13.5561 9.33384 13.6916 9.36341 13.9239 9.37956C14.1604 9.39572 14.4626 9.39572 14.8957 9.39572H16.0418C16.4749 9.39572 16.7774 9.39572 17.0136 9.37956C17.2459 9.36375 17.3814 9.33384 17.4845 9.29122C17.6513 9.22212 17.8029 9.12083 17.9306 8.99313C18.0583 8.86544 18.1596 8.71384 18.2287 8.547C18.2713 8.44388 18.3009 8.30844 18.3171 8.07606C18.3332 7.83956 18.3332 7.53741 18.3332 7.10428V5.95822C18.3332 5.52509 18.3332 5.22259 18.3171 4.98644C18.3012 4.75406 18.2713 4.61862 18.2287 4.5155C18.1596 4.34866 18.0583 4.19706 17.9306 4.06937C17.8029 3.94167 17.6513 3.84038 17.4845 3.77128C17.3814 3.72866 17.2459 3.69909 17.0136 3.68294C16.7771 3.66678 16.4749 3.66678 16.0418 3.66678H14.8957C14.4626 3.66678 14.1601 3.66678 13.9239 3.68294V3.68294Z" fill="#D0D2E0"/>
<path d="M12.1455 14.8955C12.1455 14.0413 12.1455 13.6144 12.2851 13.2771C12.3772 13.0547 12.5123 12.8526 12.6826 12.6824C12.8529 12.5122 13.055 12.3772 13.2775 12.2851C13.6144 12.1455 14.0413 12.1455 14.8955 12.1455H16.0416C16.8958 12.1455 17.3227 12.1455 17.6596 12.2851C17.8821 12.3772 18.0842 12.5122 18.2545 12.6824C18.4248 12.8526 18.5598 13.0547 18.652 13.2771C18.7916 13.614 18.7916 14.0413 18.7916 14.8955V16.0412C18.7916 16.8954 18.7916 17.3227 18.652 17.6596C18.4658 18.1088 18.1089 18.4656 17.6596 18.6517C17.3227 18.7912 16.8958 18.7912 16.0416 18.7912H14.8955C14.0413 18.7912 13.6144 18.7912 13.2775 18.6517C12.8282 18.4656 12.4712 18.1088 12.2851 17.6596C12.1455 17.3227 12.1455 16.8954 12.1455 16.0412V14.8955Z" fill="#2B2626"/>
<path fillRule="evenodd" clipRule="evenodd" d="M14.8796 11.6875H16.0579C16.4711 11.6875 16.8046 11.6875 17.0761 11.7061C17.3549 11.725 17.6017 11.7652 17.8355 11.8618C18.1135 11.9769 18.3662 12.1457 18.579 12.3585C18.7918 12.5713 18.9606 12.824 19.0757 13.102C19.1723 13.3358 19.2125 13.5826 19.2314 13.8617C19.25 14.1329 19.25 14.4664 19.25 14.8796V16.0579C19.25 16.4711 19.25 16.8046 19.2314 17.0761C19.2125 17.3549 19.1723 17.6017 19.0757 17.8355C18.9606 18.1135 18.7918 18.3662 18.579 18.579C18.3662 18.7918 18.1135 18.9606 17.8355 19.0757C17.6017 19.1723 17.3549 19.2125 17.0758 19.2314C16.8046 19.25 16.4711 19.25 16.0579 19.25H14.8796C14.4664 19.25 14.1329 19.25 13.8614 19.2314C13.5826 19.2125 13.3358 19.1723 13.102 19.0757C12.824 18.9606 12.5713 18.7918 12.3585 18.579C12.1457 18.3662 11.9769 18.1135 11.8618 17.8355C11.7652 17.6017 11.725 17.3549 11.7061 17.0758C11.6875 16.8049 11.6875 16.4715 11.6875 16.0583V14.8799C11.6875 14.4667 11.6875 14.1333 11.7061 13.8617C11.725 13.5829 11.7652 13.3361 11.8618 13.1024C11.9769 12.8243 12.1457 12.5717 12.3585 12.3589C12.5713 12.1461 12.824 11.9773 13.102 11.8621C13.3358 11.7655 13.5826 11.7253 13.8617 11.7064C14.1326 11.6875 14.466 11.6875 14.8792 11.6875H14.8796ZM13.9239 12.6204C13.6916 12.6363 13.5561 12.6662 13.453 12.7088C13.2862 12.7779 13.1346 12.8792 13.0069 13.0069C12.8792 13.1346 12.7779 13.2862 12.7088 13.453C12.6662 13.5561 12.6366 13.6916 12.6204 13.9239C12.6043 14.1604 12.6043 14.4626 12.6043 14.8957V16.0418C12.6043 16.4749 12.6043 16.7774 12.6204 17.0136C12.6363 17.2459 12.6662 17.3814 12.7088 17.4845C12.7779 17.6513 12.8792 17.8029 13.0069 17.9306C13.1346 18.0583 13.2862 18.1596 13.453 18.2287C13.5561 18.2713 13.6916 18.3009 13.9239 18.3171C14.1604 18.3332 14.4626 18.3332 14.8957 18.3332H16.0418C16.4749 18.3332 16.7774 18.3332 17.0136 18.3171C17.2459 18.3012 17.3814 18.2713 17.4845 18.2287C17.6513 18.1596 17.8029 18.0583 17.9306 17.9306C18.0583 17.8029 18.1596 17.6513 18.2287 17.4845C18.2713 17.3814 18.3009 17.2459 18.3171 17.0136C18.3332 16.7771 18.3332 16.4749 18.3332 16.0418V14.8957C18.3332 14.4626 18.3332 14.1601 18.3171 13.9239C18.3012 13.6916 18.2713 13.5561 18.2287 13.453C18.1596 13.2862 18.0583 13.1346 17.9306 13.0069C17.8029 12.8792 17.6513 12.7779 17.4845 12.7088C17.3814 12.6662 17.2459 12.6366 17.0136 12.6204C16.7771 12.6043 16.4749 12.6043 16.0418 12.6043H14.8957C14.4626 12.6043 14.1601 12.6043 13.9239 12.6204Z" fill="black"/>
</svg>