<svg width="23" height="23" viewBox="0 0 25 25" fill="none" xmlns="http://www.w3.org/2000/svg">
  <path d="M18.293 11.0825C19.783 11.0825 21.163 11.5525 22.293 12.3425V8.08252C22.293 6.97252 21.403 6.08252 20.293 6.08252H16.293V4.08252C16.293 2.97252 15.403 2.08252 14.293 2.08252H10.293C9.18297 2.08252 8.29297 2.97252 8.29297 4.08252V6.08252H4.29297C3.18297 6.08252 2.30297 6.97252 2.30297 8.08252L2.29297 19.0825C2.29297 20.1925 3.18297 21.0825 4.29297 21.0825H11.973C11.4656 20.016 11.2365 18.8385 11.3071 17.6596C11.3777 16.4806 11.7456 15.3388 12.3765 14.3405C13.0075 13.3421 13.881 12.5198 14.9155 11.9501C15.95 11.3804 17.112 11.082 18.293 11.0825ZM10.293 4.08252H14.293V6.08252H10.293V4.08252Z" fill="#C4C4C4"></path>
  <path d="M18.293 13.0825C15.533 13.0825 13.293 15.3225 13.293 18.0825C13.293 20.8425 15.533 23.0825 18.293 23.0825C21.053 23.0825 23.293 20.8425 23.293 18.0825C23.293 15.3225 21.053 13.0825 18.293 13.0825ZM19.943 20.4325L17.793 18.2825V15.0825H18.793V17.8725L20.643 19.7225L19.943 20.4325Z" fill="#1B1C1D"></path>
</svg>