<svg width="23" height="23" viewBox="0 0 26 26" fill="none" xmlns="http://www.w3.org/2000/svg">
  <path d="M14.8934 1.98252C14.6934 1.88252 14.5934 1.78252 14.3934 1.68252C14.1934 1.58252 13.9934 1.58252 13.7934 1.58252C13.5934 1.58252 13.3934 1.68252 13.1934 1.78252C12.9934 1.88252 12.8934 2.08252 12.6934 2.18252L8.19336 7.88252H10.1934L13.8934 3.18252L15.0934 4.18252L12.0934 7.88252H14.0934L16.2934 5.18252L18.9934 7.38252L18.4934 7.88252H18.9934C19.4934 7.88252 19.8934 7.98252 20.3934 8.08252C20.5934 7.78252 20.5934 7.38252 20.5934 7.08252C20.4934 6.68252 20.2934 6.38252 20.0934 6.18252L14.8934 1.98252Z" fill="black"></path>
  <path d="M21.2926 10.3827C20.6926 9.78272 19.8926 9.48271 19.0926 9.48271H5.79258C5.59258 9.48271 5.39258 9.38271 5.29258 9.28271C5.09258 9.08271 4.99258 8.88272 4.99258 8.68272C4.99258 8.48272 5.09258 8.28272 5.19258 8.08272C5.29258 7.98272 5.49258 7.88272 5.69258 7.88272H6.59258L7.79258 6.28271H5.79258C5.19258 6.28271 4.59258 6.48272 4.09258 6.98272C3.59258 7.48272 3.39258 8.08272 3.39258 8.68272V18.0827C3.39258 19.0827 3.79258 20.0827 4.59258 20.8827C5.29258 21.5827 6.29258 21.9827 7.29258 21.9827H18.9926C19.7926 21.9827 20.5926 21.6827 21.1926 21.0827C21.7926 20.4827 22.0926 19.6827 22.0926 18.8827V12.6827C22.1926 11.7827 21.7926 10.9827 21.2926 10.3827ZM18.7926 17.0827C18.5926 17.1827 18.4926 17.2827 18.1926 17.2827H16.5926C16.3926 17.2827 16.1926 17.1827 15.9926 17.0827C15.8926 16.8827 15.7926 16.6827 15.7926 16.4827C15.7926 16.2827 15.8926 16.0827 15.9926 15.8827C16.1926 15.7827 16.3926 15.6827 16.5926 15.6827H18.2926C18.4926 15.6827 18.6926 15.7827 18.8926 15.8827C18.9926 16.0827 19.0926 16.2827 19.0926 16.4827C19.0926 16.6827 18.9926 16.8827 18.7926 17.0827Z" fill="#C4C4C4"></path>
  <path d="M19.0926 16.4826C19.0926 16.6826 18.9926 16.8826 18.8926 17.0826C18.6926 17.1826 18.5926 17.2826 18.2926 17.2826H16.6926C16.4926 17.2826 16.2926 17.1826 16.0926 17.0826C15.9926 16.8826 15.8926 16.6826 15.8926 16.4826C15.8926 16.2826 15.9926 16.0826 16.0926 15.8826C16.2926 15.7826 16.4926 15.6826 16.6926 15.6826H18.2926C18.4926 15.6826 18.6926 15.7826 18.8926 15.8826C18.9926 16.0826 19.0926 16.2826 19.0926 16.4826Z" fill="black"></path>
</svg>