<svg width="23" height="23" viewBox="0 0 24 18" fill="none" xmlns="http://www.w3.org/2000/svg">
  <path d="M0.292969 5.3913C0.292969 3.5213 0.292969 2.59128 0.67162 1.87128C1.01079 1.24424 1.54773 0.733755 2.20725 0.411285C2.96455 0.0512854 3.94272 0.0512695 5.9096 0.0512695H18.1001C20.0669 0.0512695 21.0451 0.0512854 21.8024 0.411285C22.4619 0.733755 22.9989 1.24424 23.338 1.87128C23.7167 2.59128 23.7167 3.5213 23.7167 5.3913V12.5213C23.7167 14.3913 23.7167 15.3313 23.338 16.0413C22.9989 16.6683 22.4619 17.1788 21.8024 17.5013C21.0451 17.8713 20.0669 17.8713 18.1001 17.8713H5.9096C3.94272 17.8713 2.96455 17.8713 2.20725 17.5013C1.54773 17.1788 1.01079 16.6683 0.67162 16.0413C0.292969 15.3313 0.292969 14.3913 0.292969 12.5213V5.3913Z" fill="#C4C4C4"></path>
  <path d="M4.97363 12.3013C4.97363 12.0042 5.09774 11.7194 5.31866 11.5093C5.53958 11.2993 5.83922 11.1813 6.15165 11.1813H10.8322C10.9955 11.1665 11.1603 11.1844 11.316 11.2338C11.4716 11.2831 11.6147 11.3628 11.7361 11.4678C11.8575 11.5728 11.9544 11.7007 12.0208 11.8433C12.0871 11.986 12.1214 12.1403 12.1214 12.2963C12.1214 12.4523 12.0871 12.6065 12.0208 12.7492C11.9544 12.8919 11.8575 13.0198 11.7361 13.1248C11.6147 13.2298 11.4716 13.3095 11.316 13.3588C11.1603 13.4081 10.9955 13.426 10.8322 13.4113H6.15165C5.84103 13.4113 5.54297 13.2947 5.32235 13.0868C5.10173 12.8789 4.97641 12.5966 4.97363 12.3013Z" fill="#12131A"></path>
  <path d="M0.292969 4.50439H23.6746V6.7244H0.292969V4.50439Z" fill="#12131A"></path>
</svg>