<svg width="23" height="23" viewBox="0 0 20 21" fill="none" xmlns="http://www.w3.org/2000/svg">
  <path d="M9.06782 20.0825C4.22154 20.0825 0.29286 16.0531 0.29286 11.0825C0.29286 6.45815 3.69335 2.64837 8.06958 2.14012C8.61818 2.0764 9.06782 2.53023 9.06782 3.08252V10.0825C9.06782 10.6348 9.51553 11.0825 10.0678 11.0825H16.8428C17.3951 11.0825 17.8485 11.5319 17.7894 12.081C17.305 16.5817 13.585 20.0825 9.06782 20.0825Z" fill="#C4C4C4"></path>
  <path d="M12.0162 0.140116C16.0731 0.61128 19.2914 3.91965 19.7396 8.08402C19.7987 8.63313 19.3453 9.08252 18.793 9.08252H12.018C11.4657 9.08252 11.018 8.6348 11.018 8.08252V1.08252C11.018 0.530235 11.4677 0.0764012 12.0162 0.140116Z" fill="#111827"></path>
</svg>