<svg width="23" height="23" viewBox="0 0 26 26" fill="none" xmlns="http://www.w3.org/2000/svg">
  <g clipPath="url(#clip0_498_10725)">
    <path d="M15.707 11.8727C15.5344 11.7375 15.3751 11.6023 15.2025 11.4806C13.7155 10.453 11.7771 10.48 10.3034 11.5482C10.1839 11.6293 10.0777 11.724 9.97151 11.8186C9.90513 11.8862 9.8653 11.8862 9.83875 11.778C9.49355 10.8857 8.93593 10.1826 8.15261 9.66879C7.71448 9.38485 7.24979 9.18204 6.732 9.07387C6.62579 9.04683 6.58596 9.00627 6.5594 8.91162C6.24076 7.5325 6.12127 6.15338 6.24076 4.74721C6.24076 4.65256 6.25404 4.5444 6.28059 4.44975C6.32042 4.26046 6.43991 4.13877 6.59923 4.05765C7.11703 3.81427 7.63482 3.58442 8.15261 3.32752C9.41389 2.67852 10.6353 1.9484 11.6975 0.988421C11.9365 0.772088 12.1622 0.528713 12.3746 0.285339C12.6136 0.0284429 12.972 0.00140131 13.1845 0.258297C13.7686 0.947859 14.459 1.48869 15.1892 1.98896C16.3443 2.78669 17.5923 3.43569 18.8802 4.00356C19.159 4.12525 19.305 4.31454 19.3449 4.62552C19.4245 5.47733 19.4245 6.31562 19.3316 7.15392C19.2652 7.73531 19.1457 8.31671 19.0528 8.8981C19.0395 9.00627 18.9864 9.04683 18.8802 9.07387C17.4728 9.41189 16.4505 10.2502 15.8531 11.5887C15.8133 11.6699 15.7867 11.751 15.7469 11.8456C15.7469 11.8456 15.7469 11.8456 15.7203 11.8592L15.707 11.8727ZM10.3698 7.09983C10.1441 7.09983 9.98479 7.22152 9.90513 7.42433C9.82547 7.62714 9.85202 7.81644 9.99807 7.96517C10.476 8.46544 10.954 8.95218 11.4452 9.43893C11.6577 9.65527 11.963 9.64175 12.1754 9.42541C13.3172 8.26262 14.459 7.09983 15.5876 5.95056C15.8133 5.72071 15.8133 5.39621 15.6008 5.17988C15.3884 4.97706 15.0698 4.97706 14.8573 5.20692C13.8749 6.20746 12.8924 7.208 11.9099 8.20854C11.8037 8.31671 11.8037 8.31671 11.6975 8.20854C11.3921 7.89756 11.0868 7.58658 10.7947 7.28912C10.6752 7.16744 10.5557 7.09983 10.3831 7.09983H10.3698Z" fill="#111827"></path>
    <path d="M12.7868 25.0823C11.1538 25.0823 9.52073 25.0823 7.8877 25.0823C7.46284 25.0823 7.23714 24.8525 7.27697 24.4198C7.47612 22.3241 8.49843 20.7827 10.3173 19.7957C11.1139 19.363 11.9769 19.1737 12.8665 19.2008C14.619 19.2413 16.0396 19.9715 17.1415 21.3506C17.8585 22.2565 18.2302 23.2976 18.3232 24.4468C18.3497 24.839 18.1373 25.0823 17.7523 25.0823C16.0927 25.0823 14.4464 25.0823 12.7868 25.0823Z" fill="#C4C4C4"></path>
    <path d="M9.60008 18.9711C9.54698 19.0117 9.52042 19.0252 9.48059 19.0523C8.21931 19.8094 7.30322 20.8641 6.73232 22.2432C6.59955 22.5542 6.51989 22.8651 6.42696 23.1896C6.4004 23.2978 6.3473 23.3384 6.24108 23.3384C4.44873 23.3384 2.65638 23.3384 0.864025 23.3384C0.492278 23.3384 0.266574 23.1085 0.293128 22.7164C0.372788 21.4995 0.797642 20.4179 1.55441 19.4849C2.45723 18.3762 3.6123 17.7137 5.00635 17.5109C6.65266 17.281 8.12637 17.7272 9.41421 18.8224C9.46732 18.863 9.52042 18.9171 9.58681 18.9847L9.60008 18.9711Z" fill="#C4C4C4"></path>
    <path d="M15.9863 18.9712C16.3846 18.5926 16.7962 18.2951 17.2476 18.0653C19.186 17.1188 21.0713 17.227 22.8637 18.4168C24.0851 19.2416 24.8419 20.4044 25.1738 21.8646C25.2402 22.1486 25.2667 22.4325 25.2933 22.73C25.3198 23.0815 25.0941 23.3249 24.7489 23.3249C22.9566 23.3249 21.1642 23.3249 19.3719 23.3249C19.2126 23.3249 19.2126 23.3249 19.1595 23.1491C18.801 21.7565 18.084 20.5937 16.9954 19.6878C16.7165 19.4444 16.3979 19.2551 16.0925 19.0388C16.066 19.0117 16.0394 18.9982 15.9863 18.9712V18.9712Z" fill="#C4C4C4"></path>
    <path d="M9.53378 15.1175C9.53378 13.3057 10.9411 11.8049 12.76 11.7914C14.5656 11.7643 16.0394 13.2516 16.0526 15.104C16.0526 16.9293 14.6055 18.4301 12.8131 18.4436C11.0075 18.4436 9.54706 16.9834 9.52051 15.131L9.53378 15.1175Z" fill="#C4C4C4"></path>
    <path d="M5.81626 10.0474C7.59534 10.0474 9.0425 11.4941 9.08233 13.2788C9.12216 15.2258 7.58206 16.6726 5.85609 16.6861C4.02391 16.6861 2.56348 15.2123 2.56348 13.36C2.56348 11.5347 4.02391 10.0474 5.81626 10.0474V10.0474Z" fill="#C4C4C4"></path>
    <path d="M19.7834 10.0474C21.589 10.0474 23.0362 11.5482 23.0229 13.387C23.0229 15.2258 21.5359 16.6996 19.717 16.6861C17.9645 16.6726 16.4377 15.1718 16.504 13.2383C16.5704 11.4806 17.991 10.0474 19.7834 10.0474V10.0474Z" fill="#C4C4C4"></path>
    <path d="M10.3571 7.09963C10.5297 7.09963 10.6491 7.16723 10.7686 7.28892C11.074 7.5999 11.3794 7.91088 11.6714 8.20833C11.7777 8.3165 11.7777 8.3165 11.8839 8.20833C12.8663 7.20779 13.8488 6.20725 14.8313 5.20671C15.0437 4.99038 15.3756 4.97686 15.5748 5.17967C15.7872 5.396 15.7872 5.7205 15.5615 5.95036C14.4197 7.11315 13.2912 8.27594 12.1494 9.42521C11.937 9.64154 11.6316 9.65506 11.4192 9.43873C10.928 8.95198 10.45 8.46523 9.97203 7.96496C9.82599 7.81623 9.79943 7.61342 9.87909 7.42413C9.95875 7.20779 10.1313 7.09963 10.3438 7.09963H10.3571Z" fill="#C4C4C4"></path>
  </g>
  <defs>
    <clipPath id="clip0_498_10725">
      <rect width="25" height="25" fill="white" transform="translate(0.292969 0.0825195)"></rect>
    </clipPath>
  </defs>
</svg>