<svg width="23" height="23" viewBox="0 0 20 20" fill="none" xmlns="http://www.w3.org/2000/svg">
  <g clipPath="url(#clip0_328_10885)">
    <path fillRule="evenodd" clipRule="evenodd" d="M10.0427 0.557617H4.19293C3.3719 0.557617 2.6535 0.842617 2.14036 1.31762C1.62722 1.79262 1.31934 2.55262 1.31934 3.21762V15.8526C1.31934 16.6126 1.62722 17.2776 2.14036 17.7526C2.6535 18.2276 3.47453 18.5126 4.19293 18.5126H15.8926C16.7136 18.5126 17.432 18.2276 17.9451 17.7526C18.4583 17.2776 18.7662 16.5176 18.7662 15.8526V8.63262H12.9163C12.0953 8.63262 11.3769 8.34762 10.8638 7.87262C10.3506 7.39762 10.0427 6.63762 10.0427 5.97262V0.557617Z" fill="#C4C4C4"></path>
    <path fillRule="evenodd" clipRule="evenodd" d="M18.8692 6.82762V6.63762C18.8692 5.87762 18.5613 5.21262 18.0481 4.73762L14.3535 1.31762C13.8404 0.842617 13.0194 0.557617 12.301 0.557617H12.0957V5.97262C12.0957 6.25762 12.1983 6.44762 12.4036 6.63762C12.6088 6.82762 12.8141 6.92262 13.122 6.92262H18.9718L18.8692 6.82762Z" fill="#12131A"></path>
  </g>
  <defs>
    <clipPath id="clip0_328_10885">
      <rect width="19.4994" height="19" fill="white" transform="translate(0.292969 0.0825195)"></rect>
    </clipPath>
  </defs>
</svg>