<?xml version="1.0" encoding="UTF-8"?><svg id="Layer_1" xmlns="http://www.w3.org/2000/svg" xmlns:xlink="http://www.w3.org/1999/xlink" viewBox="0 0 304.9 157.6"><defs><style>.cls-1{fill:url(#linear-gradient);}.cls-2{fill:#58595b;font-family:GothamBold, 'Gotham Bold';font-size:30.8px;}.cls-3{fill:#231f20;font-family:FuturaLT-Book, 'Futura LT';font-size:10.9px;}.cls-4{fill:url(#linear-gradient-3);}.cls-5{fill:url(#linear-gradient-4);}.cls-6{fill:url(#linear-gradient-2);}.cls-7{fill:url(#linear-gradient-6);}.cls-8{fill:url(#linear-gradient-7);}.cls-9{fill:url(#linear-gradient-5);}.cls-10{letter-spacing:0em;}</style><linearGradient id="linear-gradient" x1="42.5" y1="65" x2="78.3" y2="95.4" gradientUnits="userSpaceOnUse"><stop offset="0" stop-color="#be1e2d"/><stop offset=".8" stop-color="#9e1f63"/></linearGradient><linearGradient id="linear-gradient-2" x1="95.9" y1="69.9" x2="177.1" y2="52.3" xlink:href="#linear-gradient"/><linearGradient id="linear-gradient-3" x1="97" y1="75.1" x2="178.2" y2="57.5" xlink:href="#linear-gradient"/><linearGradient id="linear-gradient-4" x1="97.8" y1="79" x2="179" y2="61.4" xlink:href="#linear-gradient"/><linearGradient id="linear-gradient-5" x1="98.7" y1="82.8" x2="179.9" y2="65.2" xlink:href="#linear-gradient"/><linearGradient id="linear-gradient-6" x1="100" y1="89" x2="181.2" y2="71.3" xlink:href="#linear-gradient"/><linearGradient id="linear-gradient-7" x1="100.5" y1="91.2" x2="181.7" y2="73.6" xlink:href="#linear-gradient"/></defs><text className="cls-3" transform="translate(117.8 97.6)"><tspan x="0" y="0">Reliable Construction Pa</tspan><tspan className="cls-10" x="114.8" y="0">r</tspan><tspan x="118.7" y="0">tner</tspan></text><path className="cls-1" d="M73.8,118.5c-.2,0-.3-.1-.5-.2-1.3-.4-2.2-1.3-2.4-2.7-.2-1.3,.3-2.4,1.5-3.1,.5-.3,.6-.7,.6-1.2,0-8.5,0-16.9,0-25.4,0-6.5,0-13,0-19.4,0-7.2,0-14.3,0-21.5,0-.6-.2-1-.8-1.3-3.3-1.4-6.7-2.8-10-4.2-.1,0-.3,0-.5-.1,0,.3,0,.5,0,.7,0,13.4,0,26.9,0,40.3,0,1.7,0,3.4,0,5.1,0,5.3,0,10.5,0,15.8,0,.5,.2,.8,.6,1.1,1.4,.8,1.9,2.2,1.4,3.6-.5,1.4-1.8,2.3-3.4,2.2-1.3,0-2.5-1.2-2.7-2.6-.2-1.3,.3-2.4,1.4-3.1,.5-.3,.8-.7,.8-1.3,0-2.4,0-4.8,0-7.2,0-.9-.1-1-1-1-.4,0-.6-.1-.6-.5,0-.2,0-.4,0-.6,0-4.6,0-9.2,0-13.7,0-.7-.3-1.1-.9-1.4-3.3-1.4-6.5-2.7-9.7-4.1-.5-.2-.8,0-.8,.5,0,2.4,0,4.8,0,7.2,0,2.4,0,4.8,0,7.1,0,7.3,0,14.7,0,22,0,.7,.2,1.2,.9,1.6,1.1,.6,1.6,1.9,1.3,3.2-.3,1.2-1.4,2.3-2.5,2.4-2.6,.4-4.3-2.2-3.5-4.3,.3-.7,.7-1.2,1.3-1.5,.5-.2,.7-.6,.7-1.1,0-5.4,0-10.7,0-16.1,0-.7-.2-.9-.9-.9-1.1,0-2.1,0-3.2,0-.6,0-.8-.2-.8-.9,0-5.2,0-10.4,0-15.7,0-1.1,0-2.2,0-3.3,0-.4,.2-.7,.5-.8,1.4-.6,2.8-1.3,4.2-1.9,.7-.3,1.1-.9,1.1-1.7,0-4.6,0-9.2,0-13.7,0,0,0-.1,0-.3-.2,0-.4,0-.5,.2-3.3,1.4-6.6,2.8-10,4.2-.6,.2-.8,.6-.8,1.3,0,7.2,0,14.4,0,21.6,0,5.2,0,10.3,0,15.5,0,.5,.2,.9,.7,1.2,1.3,.8,1.8,2.1,1.4,3.5-.4,1.4-1.8,2.4-3.1,2.3-1.4,0-2.7-1.2-3-2.5,0-.2,0-.3-.1-.5,0-.2,0-.3,0-.5,0,0,0,0,0-.1,.2-1,.8-1.8,1.7-2.3,.2-.1,.4-.5,.5-.7,0-.8,0-1.7,0-2.6,0-3.7,0-7.4,0-11.1,0-8.4,0-16.7,0-25.1,0-.6,.2-.9,.8-1.1,4.2-1.8,8.5-3.6,12.7-5.4,.5-.2,1-.2,1.5,0,1.4,.7,2.8,1.4,4.2,2,.6,.3,.9,.6,.9,1.3,0,5.3,0,10.7,0,16,0,.8,.2,1,.9,1.3,1.3,.4,1.4,.3,1.4-1,0-10.6,0-21.2,0-31.8,0-.4,.1-.7,.5-.9,1.6-.7,3.1-1.5,4.6-2.3,.2,0,.3-.2,.5-.3,0,0,.2,0,.3,0,.1,0,.3,.2,.4,.2,4.2,1.8,8.5,3.6,12.7,5.4,1,.4,1,.4,1,1.5,0,2,0,3.9,0,5.9,0,11.3,0,22.5,0,33.8,0,1.6,0,3.2,0,4.8,0,2.1,0,4.1,0,6.2,0,1.8,0,3.6,0,5.4,0,3.8,0,7.5,0,11.3,0,.7,.2,1.2,.8,1.5,.7,.4,1.2,1.1,1.3,1.9,0,0,0,.2,.1,.3v.5c0,.1-.1,.2-.1,.3-.3,1.5-1.2,2.3-2.6,2.7,0,0-.2,0-.3,.1h-.5Zm1.6-3.2c0-.8-.6-1.4-1.4-1.5-.7,0-1.5,.7-1.5,1.5,0,.7,.7,1.4,1.5,1.4,.8,0,1.4-.6,1.4-1.4Zm-43.3-14.1c0,.8,.7,1.4,1.4,1.4,.7,0,1.4-.7,1.4-1.4,0-.8-.7-1.4-1.4-1.4-.8,0-1.4,.6-1.4,1.4Zm28.7,5.3c.8,0,1.4-.6,1.4-1.4,0-.8-.6-1.4-1.4-1.4-.8,0-1.4,.6-1.4,1.4,0,.8,.6,1.4,1.4,1.4Zm-14.9,5.7c-.8,0-1.4,.6-1.5,1.3,0,.7,.6,1.4,1.4,1.4,.8,0,1.4-.6,1.4-1.3,0-.8-.6-1.4-1.4-1.4Z"/><g><g><path className="cls-6" d="M93.4,57.5h5.1l5.6,9,5.6-9h5.1v21.4h-4.6v-13.9l-6,9.1h-.1l-6-9v13.9h-4.6v-21.4Z"/><path className="cls-4" d="M119,83.8c-.4,0-.8,0-1.1,0-.3,0-.6,0-.9-.1v-3.6c.4,0,.7,0,1,0,.5,0,.9-.1,1.2-.4,.3-.3,.5-.8,.5-1.5v-15.7h4.6v16.1c0,1.8-.4,3.1-1.3,4-.9,.8-2.2,1.3-3.9,1.3Zm.5-27.2h4.9v4.1h-4.9v-4.1Z"/><path className="cls-5" d="M136.3,79.2c-1.2,0-2.4-.2-3.4-.6-1-.4-2-1-2.7-1.7-.8-.8-1.4-1.6-1.8-2.7-.4-1-.6-2.2-.6-3.4h0c0-1.2,.2-2.3,.6-3.4,.4-1,1-1.9,1.7-2.7,.7-.8,1.6-1.4,2.5-1.8,1-.4,2.1-.7,3.3-.7s2.5,.2,3.5,.7c1,.5,1.8,1.1,2.5,2,.7,.8,1.1,1.8,1.5,2.8,.3,1.1,.5,2.2,.5,3.3s0,.4,0,.6c0,.2,0,.4,0,.6h-11.4c.2,1.1,.7,1.9,1.4,2.4s1.6,.8,2.6,.8,1.5-.1,2.1-.4c.6-.3,1.2-.7,1.9-1.3l2.7,2.3c-.8,1-1.7,1.7-2.8,2.2-1.1,.5-2.4,.8-3.9,.8Zm3-9.8c-.1-1-.5-1.9-1.1-2.5-.6-.6-1.4-1-2.3-1s-1.8,.3-2.4,.9c-.6,.6-1,1.5-1.2,2.5h7Z"/><path className="cls-9" d="M147.3,62.5h4.6v2.3c.3-.3,.6-.7,.9-1,.3-.3,.7-.6,1.1-.8,.4-.2,.8-.4,1.3-.6,.5-.1,1-.2,1.6-.2,1.8,0,3.1,.5,4.1,1.6,1,1.1,1.4,2.6,1.4,4.5v10.6h-4.6v-9.1c0-1.1-.2-1.9-.7-2.5s-1.2-.8-2.1-.8-1.6,.3-2.1,.8c-.5,.6-.8,1.4-.8,2.5v9.1h-4.6v-16.4Z"/><path className="cls-7" d="M173.6,83.8c-1.3,0-2.6-.1-3.8-.4-1.2-.3-2.3-.7-3.4-1.3l1.6-3.5c.9,.5,1.7,.8,2.6,1.1,.9,.3,1.8,.4,2.9,.4,1.6,0,2.8-.4,3.5-1.1s1.1-1.9,1.1-3.3v-.8c-.7,.8-1.4,1.5-2.3,2-.8,.5-1.8,.7-3.1,.7s-1.9-.2-2.7-.5c-.9-.3-1.6-.8-2.3-1.5-.7-.7-1.2-1.4-1.6-2.4-.4-.9-.6-2-.6-3.2h0c0-1.3,.2-2.4,.6-3.3,.4-.9,.9-1.7,1.6-2.4,.7-.7,1.4-1.1,2.3-1.5,.9-.3,1.8-.5,2.7-.5s2.3,.2,3.1,.7c.8,.5,1.5,1,2.2,1.7v-2.1h4.6v12.7c0,2.9-.7,5.1-2.1,6.4-.8,.8-1.7,1.3-2.9,1.7-1.2,.3-2.5,.5-4.1,.5Zm.5-10.1c.6,0,1.1,0,1.6-.3s.9-.4,1.3-.8c.4-.3,.6-.7,.8-1.2,.2-.5,.3-1,.3-1.5h0c0-.6-.1-1.1-.3-1.6-.2-.5-.5-.9-.8-1.2-.4-.3-.8-.6-1.3-.8s-1-.3-1.6-.3-1.1,0-1.6,.3c-.5,.2-.9,.4-1.3,.8-.4,.3-.6,.7-.8,1.2-.2,.5-.3,1-.3,1.5h0c0,1.2,.4,2.1,1.1,2.8,.8,.7,1.7,1,2.8,1Z"/><path className="cls-8" d="M194.9,79.2c-1.3,0-2.4-.2-3.5-.7-1.1-.4-2-1-2.8-1.8-.8-.8-1.4-1.7-1.8-2.7-.4-1-.7-2.1-.7-3.3h0c0-1.2,.2-2.3,.7-3.4,.4-1,1.1-1.9,1.9-2.7,.8-.8,1.7-1.4,2.8-1.8,1.1-.4,2.3-.7,3.5-.7s2.4,.2,3.5,.7c1.1,.4,2,1,2.8,1.8,.8,.8,1.4,1.7,1.8,2.7,.4,1,.7,2.1,.7,3.3h0c0,1.2-.2,2.3-.7,3.4-.4,1-1.1,1.9-1.9,2.7-.8,.8-1.7,1.4-2.8,1.8-1.1,.4-2.3,.7-3.5,.7Zm0-4c.7,0,1.3-.1,1.8-.4,.5-.2,1-.6,1.3-1,.4-.4,.6-.9,.8-1.4,.2-.5,.3-1.1,.3-1.7h0c0-.7-.1-1.2-.3-1.8-.2-.5-.5-1-.9-1.4-.4-.4-.8-.7-1.4-1-.5-.2-1.1-.4-1.7-.4s-1.3,.1-1.8,.4c-.5,.2-1,.6-1.3,1-.4,.4-.6,.9-.8,1.4-.2,.5-.3,1.1-.3,1.7h0c0,.7,.1,1.2,.3,1.8,.2,.5,.5,1,.9,1.4,.4,.4,.8,.7,1.4,1,.5,.2,1.1,.4,1.8,.4Z"/></g><text className="cls-2" transform="translate(203.1 78.8)"><tspan x="0" y="0">Tech</tspan></text></g></svg>